<svg width="1280" height="800" viewBox="0 0 1280 800" fill="none" xmlns="http://www.w3.org/2000/svg">
  <defs>
    <linearGradient id="bgGrad5" x1="50%" y1="0%" x2="50%" y2="100%">
      <stop offset="0%" style="stop-color:#14919B"/>
      <stop offset="50%" style="stop-color:#0D7377"/>
      <stop offset="100%" style="stop-color:#E8A838"/>
    </linearGradient>
    <filter id="shadow5" x="-20%" y="-20%" width="140%" height="140%">
      <feDropShadow dx="0" dy="6" stdDeviation="12" flood-opacity="0.2"/>
    </filter>
  </defs>

  <!-- Background -->
  <rect width="1280" height="800" fill="url(#bgGrad5)"/>

  <!-- Globe decoration -->
  <circle cx="640" cy="400" r="500" fill="none" stroke="white" stroke-opacity="0.05" stroke-width="2"/>
  <circle cx="640" cy="400" r="400" fill="none" stroke="white" stroke-opacity="0.05" stroke-width="2"/>
  <circle cx="640" cy="400" r="300" fill="none" stroke="white" stroke-opacity="0.05" stroke-width="2"/>
  <ellipse cx="640" cy="400" rx="500" ry="200" fill="none" stroke="white" stroke-opacity="0.05" stroke-width="2"/>

  <!-- Main headline -->
  <text x="640" y="80" text-anchor="middle" fill="white" font-family="Segoe UI, Arial, sans-serif" font-size="52" font-weight="700">12개 언어 지원</text>
  <text x="640" y="130" text-anchor="middle" fill="white" fill-opacity="0.85" font-family="Segoe UI, Arial, sans-serif" font-size="24">원하는 언어로 확장 프로그램을 사용하세요</text>

  <!-- Language cards grid - 6 columns x 2 rows -->
  <!-- Row 1: English, Spanish, French, German, Italian, Portuguese -->
  <g transform="translate(90, 175)">
    <g filter="url(#shadow5)">
      <rect width="160" height="100" rx="12" fill="white"/>
      <text x="80" y="45" text-anchor="middle" fill="#1A1D23" font-family="Segoe UI, Arial, sans-serif" font-size="32">&#127482;&#127480;</text>
      <text x="80" y="78" text-anchor="middle" fill="#1A1D23" font-family="Segoe UI, Arial, sans-serif" font-size="15" font-weight="600">English</text>
    </g>
  </g>

  <g transform="translate(270, 175)">
    <g filter="url(#shadow5)">
      <rect width="160" height="100" rx="12" fill="white"/>
      <text x="80" y="45" text-anchor="middle" fill="#1A1D23" font-family="Segoe UI, Arial, sans-serif" font-size="32">&#127466;&#127480;</text>
      <text x="80" y="78" text-anchor="middle" fill="#1A1D23" font-family="Segoe UI, Arial, sans-serif" font-size="15" font-weight="600">Espanol</text>
    </g>
  </g>

  <g transform="translate(450, 175)">
    <g filter="url(#shadow5)">
      <rect width="160" height="100" rx="12" fill="white"/>
      <text x="80" y="45" text-anchor="middle" fill="#1A1D23" font-family="Segoe UI, Arial, sans-serif" font-size="32">&#127467;&#127479;</text>
      <text x="80" y="78" text-anchor="middle" fill="#1A1D23" font-family="Segoe UI, Arial, sans-serif" font-size="15" font-weight="600">Francais</text>
    </g>
  </g>

  <g transform="translate(630, 175)">
    <g filter="url(#shadow5)">
      <rect width="160" height="100" rx="12" fill="white"/>
      <text x="80" y="45" text-anchor="middle" fill="#1A1D23" font-family="Segoe UI, Arial, sans-serif" font-size="32">&#127465;&#127466;</text>
      <text x="80" y="78" text-anchor="middle" fill="#1A1D23" font-family="Segoe UI, Arial, sans-serif" font-size="15" font-weight="600">Deutsch</text>
    </g>
  </g>

  <g transform="translate(810, 175)">
    <g filter="url(#shadow5)">
      <rect width="160" height="100" rx="12" fill="white"/>
      <text x="80" y="45" text-anchor="middle" fill="#1A1D23" font-family="Segoe UI, Arial, sans-serif" font-size="32">&#127470;&#127481;</text>
      <text x="80" y="78" text-anchor="middle" fill="#1A1D23" font-family="Segoe UI, Arial, sans-serif" font-size="15" font-weight="600">Italiano</text>
    </g>
  </g>

  <g transform="translate(990, 175)">
    <g filter="url(#shadow5)">
      <rect width="160" height="100" rx="12" fill="white"/>
      <text x="80" y="45" text-anchor="middle" fill="#1A1D23" font-family="Segoe UI, Arial, sans-serif" font-size="32">&#127477;&#127481;</text>
      <text x="80" y="78" text-anchor="middle" fill="#1A1D23" font-family="Segoe UI, Arial, sans-serif" font-size="15" font-weight="600">Portugues</text>
    </g>
  </g>

  <!-- Row 2: Dutch, Chinese, Korean, Hindi, Arabic, Japanese -->
  <g transform="translate(90, 295)">
    <g filter="url(#shadow5)">
      <rect width="160" height="100" rx="12" fill="white"/>
      <text x="80" y="45" text-anchor="middle" fill="#1A1D23" font-family="Segoe UI, Arial, sans-serif" font-size="32">&#127475;&#127473;</text>
      <text x="80" y="78" text-anchor="middle" fill="#1A1D23" font-family="Segoe UI, Arial, sans-serif" font-size="15" font-weight="600">Nederlands</text>
    </g>
  </g>

  <g transform="translate(270, 295)">
    <g filter="url(#shadow5)">
      <rect width="160" height="100" rx="12" fill="white"/>
      <text x="80" y="45" text-anchor="middle" fill="#1A1D23" font-family="Segoe UI, Arial, sans-serif" font-size="32">&#127464;&#127475;</text>
      <text x="80" y="78" text-anchor="middle" fill="#1A1D23" font-family="Segoe UI, Arial, sans-serif" font-size="15" font-weight="600">中文</text>
    </g>
  </g>

  <g transform="translate(450, 295)">
    <g filter="url(#shadow5)">
      <rect width="160" height="100" rx="12" fill="white"/>
      <text x="80" y="45" text-anchor="middle" fill="#1A1D23" font-family="Segoe UI, Arial, sans-serif" font-size="32">&#127472;&#127479;</text>
      <text x="80" y="78" text-anchor="middle" fill="#1A1D23" font-family="Segoe UI, Arial, sans-serif" font-size="15" font-weight="600">한국어</text>
    </g>
  </g>

  <g transform="translate(630, 295)">
    <g filter="url(#shadow5)">
      <rect width="160" height="100" rx="12" fill="white"/>
      <text x="80" y="45" text-anchor="middle" fill="#1A1D23" font-family="Segoe UI, Arial, sans-serif" font-size="32">&#127470;&#127475;</text>
      <text x="80" y="78" text-anchor="middle" fill="#1A1D23" font-family="Segoe UI, Arial, sans-serif" font-size="15" font-weight="600">हिन्दी</text>
    </g>
  </g>

  <g transform="translate(810, 295)">
    <g filter="url(#shadow5)">
      <rect width="160" height="100" rx="12" fill="white"/>
      <text x="80" y="45" text-anchor="middle" fill="#1A1D23" font-family="Segoe UI, Arial, sans-serif" font-size="32">&#127480;&#127462;</text>
      <text x="80" y="78" text-anchor="middle" fill="#1A1D23" font-family="Segoe UI, Arial, sans-serif" font-size="15" font-weight="600">العربية</text>
    </g>
  </g>

  <g transform="translate(990, 295)">
    <g filter="url(#shadow5)">
      <rect width="160" height="100" rx="12" fill="white"/>
      <text x="80" y="45" text-anchor="middle" fill="#1A1D23" font-family="Segoe UI, Arial, sans-serif" font-size="32">&#127471;&#127477;</text>
      <text x="80" y="78" text-anchor="middle" fill="#1A1D23" font-family="Segoe UI, Arial, sans-serif" font-size="15" font-weight="600">日本語</text>
    </g>
  </g>

  <!-- Example popup 1 - Korean -->
  <g transform="translate(200, 440)">
    <g filter="url(#shadow5)">
      <rect width="240" height="280" rx="12" fill="white"/>
      <rect x="10" y="10" width="220" height="35" rx="8" fill="#F7F8FA"/>
      <circle cx="32" cy="27" r="10" fill="#0D7377"/>
      <ellipse cx="32" cy="27" rx="6" ry="3.5" stroke="white" stroke-width="1.5" fill="none"/>
      <circle cx="32" cy="27" r="1.5" fill="white"/>
      <line x1="27" y1="22" x2="37" y2="32" stroke="white" stroke-width="1.5" stroke-linecap="round"/>
      <text x="52" y="32" fill="#1A1D23" font-family="Segoe UI, Arial, sans-serif" font-size="10" font-weight="600">LinkedIn 채용공고 차단기</text>

      <text x="20" y="65" fill="#6B7280" font-family="Segoe UI, Arial, sans-serif" font-size="9" font-weight="600">빠른 필터</text>
      <rect x="15" y="75" width="100" height="24" rx="12" fill="#0D7377"/>
      <text x="65" y="91" text-anchor="middle" fill="white" font-family="Segoe UI, Arial, sans-serif" font-size="9">&#10003; 지원함</text>
      <rect x="125" y="75" width="100" height="24" rx="12" fill="#F7F8FA" stroke="#E5E7EB"/>
      <text x="175" y="92" text-anchor="middle" fill="#6B7280" font-family="Segoe UI, Arial, sans-serif" font-size="9">&#9733; 스폰서됨</text>

      <rect x="15" y="110" width="210" height="30" rx="8" fill="#0D7377"/>
      <text x="30" y="130" fill="white" font-family="Segoe UI, Arial, sans-serif" font-size="10" font-weight="600">차단된 회사</text>
      <rect x="180" y="117" width="25" height="16" rx="8" fill="white"/>
      <text x="192" y="129" text-anchor="middle" fill="#0D7377" font-family="Segoe UI, Arial, sans-serif" font-size="9" font-weight="700">2</text>

      <rect x="15" y="150" width="210" height="25" rx="6" fill="#F7F8FA" stroke="#E5E7EB"/>
      <text x="25" y="167" fill="#1A1D23" font-family="Segoe UI, Arial, sans-serif" font-size="9">Acme Corp</text>

      <rect x="15" y="235" width="210" height="30" rx="8" fill="#0D7377"/>
      <rect x="50" y="242" width="18" height="16" rx="4" fill="white"/>
      <text x="59" y="254" text-anchor="middle" fill="#0D7377" font-family="Segoe UI, Arial, sans-serif" font-size="9" font-weight="700">in</text>
      <text x="75" y="254" fill="white" font-family="Segoe UI, Arial, sans-serif" font-size="9" font-weight="600">LinkedIn Jobs 열기</text>
    </g>
    <text x="120" y="320" text-anchor="middle" fill="white" font-family="Segoe UI, Arial, sans-serif" font-size="16" font-weight="600">한국어</text>
  </g>

  <!-- Example popup 2 - Korean -->
  <g transform="translate(520, 440)">
    <g filter="url(#shadow5)">
      <rect width="240" height="280" rx="12" fill="white"/>
      <rect x="10" y="10" width="220" height="35" rx="8" fill="#F7F8FA"/>
      <circle cx="32" cy="27" r="10" fill="#0D7377"/>
      <ellipse cx="32" cy="27" rx="6" ry="3.5" stroke="white" stroke-width="1.5" fill="none"/>
      <circle cx="32" cy="27" r="1.5" fill="white"/>
      <line x1="27" y1="22" x2="37" y2="32" stroke="white" stroke-width="1.5" stroke-linecap="round"/>
      <text x="52" y="32" fill="#1A1D23" font-family="Segoe UI, Arial, sans-serif" font-size="10" font-weight="600">LinkedIn 채용공고 차단기</text>

      <text x="20" y="65" fill="#6B7280" font-family="Segoe UI, Arial, sans-serif" font-size="9" font-weight="600">빠른 필터</text>
      <rect x="15" y="75" width="100" height="24" rx="12" fill="#0D7377"/>
      <text x="65" y="91" text-anchor="middle" fill="white" font-family="Segoe UI, Arial, sans-serif" font-size="9">&#10003; 지원함</text>
      <rect x="125" y="75" width="100" height="24" rx="12" fill="#F7F8FA" stroke="#E5E7EB"/>
      <text x="175" y="92" text-anchor="middle" fill="#6B7280" font-family="Segoe UI, Arial, sans-serif" font-size="9">&#9733; 스폰서됨</text>

      <rect x="15" y="110" width="210" height="30" rx="8" fill="#0D7377"/>
      <text x="30" y="130" fill="white" font-family="Segoe UI, Arial, sans-serif" font-size="10" font-weight="600">차단된 회사</text>
      <rect x="180" y="117" width="25" height="16" rx="8" fill="white"/>
      <text x="192" y="129" text-anchor="middle" fill="#0D7377" font-family="Segoe UI, Arial, sans-serif" font-size="9" font-weight="700">2</text>

      <rect x="15" y="150" width="210" height="25" rx="6" fill="#F7F8FA" stroke="#E5E7EB"/>
      <text x="25" y="167" fill="#1A1D23" font-family="Segoe UI, Arial, sans-serif" font-size="9">Acme Corp</text>

      <rect x="15" y="235" width="210" height="30" rx="8" fill="#0D7377"/>
      <rect x="50" y="242" width="18" height="16" rx="4" fill="white"/>
      <text x="59" y="254" text-anchor="middle" fill="#0D7377" font-family="Segoe UI, Arial, sans-serif" font-size="9" font-weight="700">in</text>
      <text x="75" y="254" fill="white" font-family="Segoe UI, Arial, sans-serif" font-size="9" font-weight="600">LinkedIn Jobs 열기</text>
    </g>
    <text x="120" y="320" text-anchor="middle" fill="white" font-family="Segoe UI, Arial, sans-serif" font-size="16" font-weight="600">한국어</text>
  </g>

  <!-- Example popup 3 - Korean -->
  <g transform="translate(840, 440)">
    <g filter="url(#shadow5)">
      <rect width="240" height="280" rx="12" fill="white"/>
      <rect x="10" y="10" width="220" height="35" rx="8" fill="#F7F8FA"/>
      <circle cx="32" cy="27" r="10" fill="#0D7377"/>
      <ellipse cx="32" cy="27" rx="6" ry="3.5" stroke="white" stroke-width="1.5" fill="none"/>
      <circle cx="32" cy="27" r="1.5" fill="white"/>
      <line x1="27" y1="22" x2="37" y2="32" stroke="white" stroke-width="1.5" stroke-linecap="round"/>
      <text x="52" y="32" fill="#1A1D23" font-family="Segoe UI, Arial, sans-serif" font-size="10" font-weight="600">LinkedIn 채용공고 차단기</text>

      <text x="20" y="65" fill="#6B7280" font-family="Segoe UI, Arial, sans-serif" font-size="9" font-weight="600">빠른 필터</text>
      <rect x="15" y="75" width="100" height="24" rx="12" fill="#0D7377"/>
      <text x="65" y="91" text-anchor="middle" fill="white" font-family="Segoe UI, Arial, sans-serif" font-size="9">&#10003; 지원함</text>
      <rect x="125" y="75" width="100" height="24" rx="12" fill="#F7F8FA" stroke="#E5E7EB"/>
      <text x="175" y="92" text-anchor="middle" fill="#6B7280" font-family="Segoe UI, Arial, sans-serif" font-size="9">&#9733; 스폰서됨</text>

      <rect x="15" y="110" width="210" height="30" rx="8" fill="#0D7377"/>
      <text x="30" y="130" fill="white" font-family="Segoe UI, Arial, sans-serif" font-size="10" font-weight="600">차단된 회사</text>
      <rect x="180" y="117" width="25" height="16" rx="8" fill="white"/>
      <text x="192" y="129" text-anchor="middle" fill="#0D7377" font-family="Segoe UI, Arial, sans-serif" font-size="9" font-weight="700">2</text>

      <rect x="15" y="150" width="210" height="25" rx="6" fill="#F7F8FA" stroke="#E5E7EB"/>
      <text x="25" y="167" fill="#1A1D23" font-family="Segoe UI, Arial, sans-serif" font-size="9">Acme Corp</text>

      <rect x="15" y="235" width="210" height="30" rx="8" fill="#0D7377"/>
      <rect x="50" y="242" width="18" height="16" rx="4" fill="white"/>
      <text x="59" y="254" text-anchor="middle" fill="#0D7377" font-family="Segoe UI, Arial, sans-serif" font-size="9" font-weight="700">in</text>
      <text x="75" y="254" fill="white" font-family="Segoe UI, Arial, sans-serif" font-size="9" font-weight="600">LinkedIn Jobs 열기</text>
    </g>
    <text x="120" y="320" text-anchor="middle" fill="white" font-family="Segoe UI, Arial, sans-serif" font-size="16" font-weight="600">한국어</text>
  </g>
</svg>
