<svg width="1400" height="560" viewBox="0 0 1400 560" fill="none" xmlns="http://www.w3.org/2000/svg">
  <defs>
    <linearGradient id="marqueeBg" x1="0%" y1="0%" x2="100%" y2="100%">
      <stop offset="0%" style="stop-color:#0D7377"/>
      <stop offset="50%" style="stop-color:#0D7377"/>
      <stop offset="100%" style="stop-color:#E8A838"/>
    </linearGradient>
    <filter id="marqueeShadow" x="-20%" y="-20%" width="140%" height="140%">
      <feDropShadow dx="0" dy="8" stdDeviation="16" flood-opacity="0.3"/>
    </filter>
    <filter id="shadowSmall2" x="-10%" y="-10%" width="120%" height="120%">
      <feDropShadow dx="0" dy="2" stdDeviation="4" flood-opacity="0.15"/>
    </filter>
  </defs>

  <!-- Background -->
  <rect width="1400" height="560" fill="url(#marqueeBg)"/>

  <!-- Decorative elements -->
  <circle cx="100" cy="480" r="200" fill="white" fill-opacity="0.03"/>
  <circle cx="1300" cy="80" r="150" fill="white" fill-opacity="0.03"/>
  <circle cx="1350" cy="450" r="100" fill="white" fill-opacity="0.03"/>

  <!-- Left side - Branding -->
  <g transform="translate(80, 100)">
    <!-- Large Logo -->
    <g filter="url(#marqueeShadow)">
      <rect width="120" height="120" rx="24" fill="white"/>
      <!-- Eye with slash -->
      <ellipse cx="60" cy="60" rx="35" ry="22" stroke="#0D7377" stroke-width="7" fill="none"/>
      <circle cx="60" cy="60" r="11" fill="#0D7377"/>
      <line x1="33" y1="33" x2="87" y2="87" stroke="#0D7377" stroke-width="9" stroke-linecap="round"/>
    </g>

    <!-- Main headline -->
    <text x="145" y="50" fill="white" font-family="Segoe UI, Arial, sans-serif" font-size="42" font-weight="700">LinkedIn</text>
    <text x="145" y="100" fill="white" font-family="Segoe UI, Arial, sans-serif" font-size="42" font-weight="700">Job Blocker</text>

    <!-- Tagline -->
    <text x="0" y="180" fill="white" fill-opacity="0.9" font-family="Segoe UI, Arial, sans-serif" font-size="22">Take control of your job search.</text>
    <text x="0" y="210" fill="white" fill-opacity="0.9" font-family="Segoe UI, Arial, sans-serif" font-size="22">Hide the jobs you don't want to see.</text>

    <!-- Feature badges -->
    <g transform="translate(0, 250)">
      <rect width="140" height="40" rx="20" fill="white" fill-opacity="0.15"/>
      <text x="70" y="27" text-anchor="middle" fill="white" font-family="Segoe UI, Arial, sans-serif" font-size="14" font-weight="600">Quick Filters</text>
    </g>

    <g transform="translate(160, 250)">
      <rect width="160" height="40" rx="20" fill="white" fill-opacity="0.15"/>
      <text x="80" y="27" text-anchor="middle" fill="white" font-family="Segoe UI, Arial, sans-serif" font-size="14" font-weight="600">Block Companies</text>
    </g>

    <g transform="translate(340, 250)">
      <rect width="140" height="40" rx="20" fill="white" fill-opacity="0.15"/>
      <text x="70" y="27" text-anchor="middle" fill="white" font-family="Segoe UI, Arial, sans-serif" font-size="14" font-weight="600">100% Private</text>
    </g>

    <!-- Bottom text -->
    <text x="0" y="350" fill="white" font-family="Segoe UI, Arial, sans-serif" font-size="18" font-weight="500">Free • Open Source • No Tracking • 12 Languages</text>
  </g>

  <!-- Right side - App Preview -->
  <g transform="translate(750, 60)" filter="url(#marqueeShadow)">
    <!-- Popup mockup -->
    <rect x="0" y="0" width="320" height="440" rx="16" fill="white"/>

    <!-- Header -->
    <rect x="12" y="12" width="296" height="44" rx="10" fill="#F7F8FA"/>
    <circle cx="38" cy="34" r="14" fill="url(#marqueeBg)"/>
    <ellipse cx="38" cy="34" rx="8" ry="5" stroke="white" stroke-width="2.5" fill="none"/>
    <circle cx="38" cy="34" r="2.5" fill="white"/>
    <line x1="31" y1="27" x2="45" y2="41" stroke="white" stroke-width="2.5" stroke-linecap="round"/>
    <text x="62" y="39" fill="#1A1D23" font-family="Segoe UI, Arial, sans-serif" font-size="14" font-weight="600">LinkedIn Job Blocker</text>

    <!-- Quick Filters Section -->
    <rect x="12" y="68" width="296" height="140" rx="10" fill="#F7F8FA"/>
    <text x="24" y="90" fill="#6B7280" font-family="Segoe UI, Arial, sans-serif" font-size="11" font-weight="600">QUICK FILTERS</text>

    <!-- Filter pills - 2x2 grid -->
    <rect x="24" y="102" width="130" height="34" rx="17" fill="#0D7377"/>
    <text x="89" y="125" text-anchor="middle" fill="white" font-family="Segoe UI, Arial, sans-serif" font-size="12" font-weight="500">✓ Applied</text>

    <rect x="166" y="102" width="130" height="34" rx="17" fill="#F7F8FA" stroke="#E5E7EB" stroke-width="2"/>
    <text x="231" y="125" text-anchor="middle" fill="#6B7280" font-family="Segoe UI, Arial, sans-serif" font-size="12" font-weight="500">★ Promoted</text>

    <rect x="24" y="144" width="130" height="34" rx="17" fill="#0D7377"/>
    <text x="89" y="167" text-anchor="middle" fill="white" font-family="Segoe UI, Arial, sans-serif" font-size="12" font-weight="500">✕ Dismissed</text>

    <rect x="166" y="144" width="130" height="34" rx="17" fill="#F7F8FA" stroke="#E5E7EB" stroke-width="2"/>
    <text x="231" y="167" text-anchor="middle" fill="#6B7280" font-family="Segoe UI, Arial, sans-serif" font-size="12" font-weight="500">◉ Viewed</text>

    <!-- Companies Section -->
    <rect x="12" y="220" width="296" height="170" rx="10" fill="#F7F8FA"/>

    <!-- Company badge -->
    <rect x="24" y="232" width="272" height="40" rx="10" fill="#0D7377"/>
    <text x="42" y="258" fill="white" font-family="Segoe UI, Arial, sans-serif" font-size="13" font-weight="600">Companies</text>
    <rect x="255" y="242" width="32" height="20" rx="10" fill="white"/>
    <text x="271" y="256" text-anchor="middle" fill="#0D7377" font-family="Segoe UI, Arial, sans-serif" font-size="11" font-weight="700">3</text>

    <!-- Company items -->
    <rect x="24" y="282" width="272" height="32" rx="8" fill="white" stroke="#E5E7EB" stroke-width="1"/>
    <text x="36" y="303" fill="#1A1D23" font-family="Segoe UI, Arial, sans-serif" font-size="11">Acme Corporation</text>
    <rect x="262" y="288" width="24" height="20" rx="5" fill="#EF4444"/>
    <text x="274" y="302" text-anchor="middle" fill="white" font-family="Segoe UI, Arial, sans-serif" font-size="12">×</text>

    <rect x="24" y="320" width="272" height="32" rx="8" fill="white" stroke="#E5E7EB" stroke-width="1"/>
    <text x="36" y="341" fill="#1A1D23" font-family="Segoe UI, Arial, sans-serif" font-size="11">Spam Recruiters Inc</text>
    <rect x="262" y="326" width="24" height="20" rx="5" fill="#EF4444"/>
    <text x="274" y="340" text-anchor="middle" fill="white" font-family="Segoe UI, Arial, sans-serif" font-size="12">×</text>

    <rect x="24" y="358" width="272" height="32" rx="8" fill="white" stroke="#E5E7EB" stroke-width="1"/>
    <text x="36" y="379" fill="#1A1D23" font-family="Segoe UI, Arial, sans-serif" font-size="11">Low Pay Tech Ltd</text>
    <rect x="262" y="364" width="24" height="20" rx="5" fill="#EF4444"/>
    <text x="274" y="378" text-anchor="middle" fill="white" font-family="Segoe UI, Arial, sans-serif" font-size="12">×</text>

    <!-- LinkedIn Jobs Bar -->
    <rect x="12" y="400" width="296" height="28" rx="8" fill="#0D7377"/>
    <rect x="93" y="405" width="20" height="18" rx="4" fill="white"/>
    <text x="103" y="418" text-anchor="middle" fill="#0D7377" font-family="Segoe UI, Arial, sans-serif" font-size="11" font-weight="700">in</text>
    <text x="120" y="418" fill="white" font-family="Segoe UI, Arial, sans-serif" font-size="11" font-weight="600">Open LinkedIn Jobs</text>
  </g>

  <!-- Floating feature callouts around the popup -->
  <g transform="translate(1100, 130)">
    <rect width="200" height="70" rx="12" fill="white" fill-opacity="0.15"/>
    <text x="100" y="30" text-anchor="middle" fill="white" font-family="Segoe UI, Arial, sans-serif" font-size="14" font-weight="600">Hide Applied Jobs</text>
    <text x="100" y="52" text-anchor="middle" fill="white" fill-opacity="0.8" font-family="Segoe UI, Arial, sans-serif" font-size="12">Already applied? Gone!</text>
  </g>

  <g transform="translate(1100, 350)">
    <rect width="200" height="70" rx="12" fill="white" fill-opacity="0.15"/>
    <text x="100" y="30" text-anchor="middle" fill="white" font-family="Segoe UI, Arial, sans-serif" font-size="14" font-weight="600">Block Bad Companies</text>
    <text x="100" y="52" text-anchor="middle" fill="white" fill-opacity="0.8" font-family="Segoe UI, Arial, sans-serif" font-size="12">Never see them again</text>
  </g>

  <g transform="translate(1100, 470)">
    <rect width="200" height="70" rx="12" fill="white" fill-opacity="0.15"/>
    <text x="100" y="30" text-anchor="middle" fill="white" font-family="Segoe UI, Arial, sans-serif" font-size="14" font-weight="600">Your Data, Your Device</text>
    <text x="100" y="52" text-anchor="middle" fill="white" fill-opacity="0.8" font-family="Segoe UI, Arial, sans-serif" font-size="12">No external servers</text>
  </g>
</svg>
